<svg width="150" height="96" viewBox="0 0 150 96" fill="none" xmlns="http://www.w3.org/2000/svg">
<path fill-rule="evenodd" clip-rule="evenodd" d="M12.308 38.4304C5.86548 38.5667 0.500147 43.0259 0.08912 49.6246C-0.573047 60.2556 2.57623 72.098 5.50886 82.2336C7.00353 87.3995 8.79163 93.0584 14.2704 95.1468C17.8943 96.5281 23.2837 96.2949 26.4899 93.986C27.1927 93.4796 27.7349 92.774 28.2721 92.0747C29.1337 90.9533 29.9829 89.8481 31.4626 89.6062C34.0177 89.1885 36.813 89.3092 39.5353 89.4267C40.7878 89.4807 42.0249 89.5341 43.216 89.5341H67.2555H101.107C102.946 89.5341 104.809 89.4842 106.68 89.434C110.56 89.3299 114.474 89.225 118.271 89.5629C120.03 89.7192 120.924 90.853 121.859 92.0389C122.405 92.7316 122.966 93.4421 123.72 93.986C126.348 95.8783 129.871 96.0701 132.996 95.816C138.869 95.3376 141.47 91.0682 143.392 86.1272C147.062 76.6906 150.585 60.3253 149.918 49.6246C149.507 43.0259 144.142 38.5667 137.699 38.4305C137.55 34.9846 137.034 31.4726 135.887 28.2097C127.609 4.66452 98.1206 -2.81553e-05 76.534 -2.81553e-05C54.9475 -2.81553e-05 22.3984 4.66449 14.1209 28.2097C12.9737 31.4725 12.4572 34.9846 12.308 38.4304ZM78.2904 62.7567C78.7054 62.6129 79.1171 62.4703 79.5205 62.3125C82.0574 61.3201 84.6984 60.7361 87.3702 60.2367C100.479 57.7857 115.018 58.6447 126.128 66.1725C126.128 64.4589 126.023 62.6067 125.915 60.7005C125.644 55.9288 125.355 50.8197 126.645 46.7045C127.861 42.8298 130.543 40.3773 130.543 40.3773C121.91 42.4307 121.156 50.7623 121.156 58.0711C110.414 54.6048 98.527 53.7978 87.3702 55.4672C84.9147 55.8346 81.8632 56.5199 79.5205 57.342C79.2456 57.4384 78.9646 57.5342 78.6796 57.6314C77.501 58.0331 76.2558 58.4575 75.1051 59.0454C73.9544 58.4575 72.7092 58.0331 71.5306 57.6314C71.2456 57.5342 70.9646 57.4384 70.6897 57.342C68.3471 56.5199 65.2955 55.8346 62.84 55.4672C51.6832 53.7978 39.7967 54.6048 29.0545 58.0711C29.0545 50.7623 28.3006 42.4307 19.667 40.3773C19.667 40.3773 22.3495 42.8298 23.5648 46.7045C24.8556 50.8197 24.566 55.9288 24.2955 60.7005C24.1874 62.6067 24.0824 64.4589 24.0824 66.1725C35.1926 58.6447 49.7316 57.7857 62.84 60.2367C65.5119 60.7361 68.1528 61.3201 70.6897 62.3125C71.0932 62.4703 71.5048 62.6129 71.9199 62.7567C72.987 63.1263 74.0763 63.5037 75.1051 64.1673C76.1339 63.5037 77.2232 63.1263 78.2904 62.7567Z" fill="#3B82F6"/>
</svg>
